:SAMPLES-PER-SECOND 30
:FULLY-SPECIFIED
:DEGREES
1287
root  3.46077 39.2339 16.3338 -179.694 33.7039 178.55
RightUpLeg  -21.5295 -5.25336 -5.11819
RightLeg  33.6106 14.2453 9.77625
RightFoot  -10.108 -0.207866 12.8374
RightToes  -1.33073e-015 0 -3.6325e-017
Spine  10.227 -1.26157 -5.64069
Spine1  4.13579 -2.43742 2.87757
HEad  -9.07991 -24.3687 7.43604
LeftShoulder1  0.192646 2.91367 -26.5451
LeftArm  -2.82934 15.4805 -35.7768
LeftForeArm  11.0572 -20.9477 -4.42296
LeftHand  -0.0238434 5.38234 5.27849
RightShoulder  -0.391345 -4.71086 25.3881
RightArm  10.7764 -2.2633 44.6009
RightForeArm  -1.67483 7.13459 6.59899
RightHand  -0.615583 3.47628 -8.30194
LeftUpLeg  -2.68054 14.0644 8.14201
LeftLeg  15.7425 3.0563 -0.376044
LeftFoot  -10.3738 0.126202 -7.57159
LeftToes  -1.93726e-010 2.42366e-011 2.16268e-013
1288
root  3.24701 39.3671 16.0145 -179.31 38.1485 178.865
RightUpLeg  -22.3865 -8.8919 -4.2393
RightLeg  30.4461 11.3989 6.94424
RightFoot  -9.72944 -0.225186 11.3797
RightToes  -1.33073e-015 0 -3.6325e-017
Spine  9.80717 -1.25956 -5.89089
Spine1  4.45193 -2.58494 3.68749
HEad  -10.0728 -22.5511 7.25046
LeftShoulder1  0.102508 3.19544 -27.1037
LeftArm  -3.68277 14.4485 -34.769
LeftForeArm  10.8347 -21.6648 -4.35146
LeftHand  -0.0667073 4.34135 5.29443
RightShoulder  -0.269653 -4.34956 24.6194
RightArm  9.43362 -4.45137 43.6034
RightForeArm  -0.90923 5.49184 5.97501
RightHand  -0.640801 3.17548 -8.9098
LeftUpLeg  -0.679362 14.0766 8.19387
LeftLeg  13.8529 7.36267 -0.460726
LeftFoot  -10.1545 0.141359 -7.77728
LeftToes  -1.93726e-010 2.42366e-011 2.16268e-013
1289
root  3.1148 39.4669 15.6967 -179.297 42.15 179.006
RightUpLeg  -22.6979 -11.5979 -3.57924
RightLeg  26.5474 8.51325 4.3878
RightFoot  -8.8031 -0.264386 9.18822
RightToes  -1.33073e-015 0 -3.6325e-017
Spine  9.99324 -1.36907 -5.30626
Spine1  4.3726 -2.54743 3.29495
HEad  -10.4906 -21.1448 6.69768
LeftShoulder1  0.154395 3.03213 -26.6549
LeftArm  -5.36519 13.7798 -34.5573
LeftForeArm  10.3885 -21.9901 -4.35026
LeftHand  -0.0581724 4.55733 5.31958
RightShoulder  -0.330822 -4.53422 24.979
RightArm  8.84674 -6.47776 41.942
RightForeArm  -1.60121 4.53791 5.6223
RightHand  -0.631857 3.17124 -8.76662
LeftUpLeg  1.40951 13.3569 7.87548
LeftLeg  12.0753 11.9777 -0.395146
LeftFoot  -9.8761 0.159326 -7.83133
LeftToes  -1.93726e-010 2.42366e-011 2.16268e-013
1290
root  3.10253 39.4992 15.3851 -179.173 45.5799 178.952
RightUpLeg  -22.7716 -14.144 -3.00392
RightLeg  22.0018 6.00043 2.44681
RightFoot  -8.16843 -0.260277 7.36454
RightToes  -1.33073e-015 0 -3.6325e-017
Spine  9.85069 -1.64098 -5.53422
Spine1  4.21314 -2.99286 4.13329
HEad  -10.9237 -19.4284 5.48857
LeftShoulder1  0.0289127 3.41908 -27.5969
LeftArm  -6.23428 12.9913 -33.6705
LeftForeArm  10.4274 -22.6787 -4.37083
LeftHand  -0.0277261 5.2901 5.32901
RightShoulder  -0.241838 -4.27225 24.1362
RightArm  7.34359 -9.0597 41.0497
RightForeArm  -1.17223 4.12305 4.84383
RightHand  -0.46454 2.64785 -6.93297
LeftUpLeg  2.95198 12.6545 7.33408
LeftLeg  10.7155 16.1177 -0.403072
LeftFoot  -9.84449 0.164784 -8.09461
LeftToes  -1.93726e-010 2.42366e-011 2.16268e-013
1291
root  3.18848 39.518 15.0862 -179.42 48.6435 178.716
RightUpLeg  -22.3633 -16.2426 -2.58337
RightLeg  17.6102 3.40375 1.04489
RightFoot  -7.51889 -0.241482 5.70399
RightToes  -1.33073e-015 0 -3.6325e-017
Spine  9.77107 -1.92402 -5.31535
Spine1  4.37446 -3.3032 4.28615
HEad  -11.3514 -17.2041 4.52193
LeftShoulder1  0.00235095 3.49694 -27.5205
LeftArm  -7.3458 11.969 -33.7495
LeftForeArm  10.2797 -22.5178 -4.3588
LeftHand  -0.031519 5.18672 6.00855
RightShoulder  -0.263412 -4.33767 24.2947
RightArm  6.7608 -11.3127 39.7984
RightForeArm  -1.38484 4.41854 4.44912
RightHand  -0.400977 2.58589 -6.0469
LeftUpLeg  4.78702 12.0855 6.69598
LeftLeg  9.12517 19.6103 -0.499758
LeftFoot  -9.65966 0.181354 -8.40444
LeftToes  -1.93726e-010 2.42366e-011 2.16268e-013
1292
root  3.35418 39.49 14.8116 -179.849 51.4871 177.869
RightUpLeg  -22.4243 -17.7957 -2.6175
RightLeg  14.4543 -0.0436543 0.30436
RightFoot  -6.4554 -0.223755 4.22885
RightToes  -1.33073e-015 0 -3.6325e-017
Spine  9.61464 -2.19669 -4.9711
Spine1  4.31169 -3.46559 3.91117
HEad  -11.7867 -16.0105 4.12032
LeftShoulder1  -0.0232548 3.57301 -27.3493
LeftArm  -8.53923 11.178 -34.2781
LeftForeArm  10.7959 -22.7122 -4.34419
LeftHand  -0.074992 4.21434 5.59096
RightShoulder  -0.309977 -4.48305 24.519
RightArm  6.2333 -13.4132 39.1108
RightForeArm  -1.80146 4.59295 4.12318
RightHand  -0.355332 2.20814 -5.6392
LeftUpLeg  6.16952 11.4103 5.48929
LeftLeg  7.67304 22.9649 -0.463737
LeftFoot  -9.46654 0.201119 -8.82056
LeftToes  -1.93726e-010 2.42366e-011 2.16268e-013
1293
root  3.67507 39.3999 14.5553 179.172 53.7673 176.752
RightUpLeg  -21.9656 -18.8233 -3.23718
RightLeg  12.659 -4.46153 0.103043
RightFoot  -5.52456 -0.16634 2.51916
RightToes  -1.33073e-015 0 -3.6325e-017
Spine  9.52331 -2.4741 -5.07197
Spine1  4.42003 -3.8081 4.07055
HEad  -12.4812 -14.6009 3.16763
LeftShoulder1  -0.0511634 3.65593 -27.4346
LeftArm  -9.65961 10.4819 -35.0862
LeftForeArm  11.2609 -23.0486 -4.36478
LeftHand  -0.0833728 4.0654 5.82122
RightShoulder  -0.296997 -4.44723 24.3032
RightArm  5.53472 -15.7845 38.9636
RightForeArm  -2.23065 5.13007 3.77255
RightHand  -0.388918 2.70125 -5.68138
LeftUpLeg  7.81943 11.1845 4.67463
LeftLeg  6.61387 25.1392 -0.744283
LeftFoot  -9.62672 0.200985 -9.57265
LeftToes  -1.93726e-010 2.42366e-011 2.16268e-013
